<svg xmlns="http://www.w3.org/2000/svg" version="1.0" viewBox="0 0 275 183"><path fill="#BF0000" d="M0 30.5V61h275V0H0z"/><g fill="#BFBFBF" stroke-width="0"><path d="M12 61.7c31 .7 124 .7 124 0 0-.4-30.7-.6-68.2-.5-37.6.1-62.7.4-55.8.5m125.2-.2c.7.7 137 .6 137.6 0 .3-.3-30.7-.5-68.8-.5s-69.1.2-68.8.5m-6.2 3.4c0 .6.6 1.1 1.4 1.1 1.8 0 2.8 5.2 1.3 6.3q-1.2.9.6.3c.9-.3 1.7-.1 1.7.4 0 .6-.8 1-1.9 1-2.4 0-4.7 2.5-3.1 3.5.6.4.9.1.8-.6-.2-.6 1.2-1.6 3-2.1 3.3-.9 4.1-2.1 2-3.4-.9-.6-.5-1 1.2-1.5 2.4-.7 2.4-.7.3-.8-2.5-.1-2.9-1-1.3-2.9.7-.9.7-.9-.1-.3s-2 .4-3.5-.6c-1.5-.9-2.4-1.1-2.4-.4m9 1.6c0 .8.2 1.5.4 1.5s.6-.7 1-1.5c.3-.8.1-1.5-.4-1.5-.6 0-1 .7-1 1.5M122.5 73c-.3.5-.1 1 .4 1 .6 0 1.1-.5 1.1-1 0-.6-.2-1-.4-1-.3 0-.8.4-1.1 1m16.5-.1c0 1.4 2.9 2.1 3.6.9.4-.7.3-.8-.4-.4s-1.2.2-1.2-.3c0-.6-.4-1.1-1-1.1-.5 0-1 .4-1 .9m12 .1c0 .5.5 1 1.1 1 .5 0 .7-.5.4-1-.3-.6-.8-1-1.1-1-.2 0-.4.4-.4 1m-34 2c0 .5.5 1 1.1 1 .5 0 .7-.5.4-1-.3-.6-.8-1-1.1-1-.2 0-.4.4-.4 1m39.5 0c-.3.5-.1 1 .4 1 .6 0 1.1-.5 1.1-1 0-.6-.2-1-.4-1-.3 0-.8.4-1.1 1m-36.2 4.5c0 2.7.2 3.8.4 2.2.2-1.5.2-3.7 0-5-.2-1.2-.4 0-.4 2.8m34 0c0 2.7.2 3.8.4 2.2.2-1.5.2-3.7 0-5-.2-1.2-.4 0-.4 2.8m-31.7-2c.4.8 1.1 1.5 1.6 1.5.6 0 .5-.6-.2-1.5-.7-.8-1.4-1.5-1.6-1.5s-.1.7.2 1.5m14.3-.5c-.1.8-.1 1.9 0 2.4s-.5.6-1.4.2c-.9-.3-1.4-.2-1.1.3s1.7.8 3.1.8 2.8-.3 3.1-.8-.3-.6-1.2-.2c-1 .4-1.5.2-1.1-.3.3-.6.2-1.6-.4-2.4-.7-1.3-.9-1.3-1 0m3.1 0c0 .5.5 1 1.1 1 .5 0 .7-.5.4-1-.3-.6-.8-1-1.1-1-.2 0-.4.4-.4 1m11 .5c-.7.9-.8 1.5-.2 1.5.5 0 1.2-.7 1.6-1.5.3-.8.4-1.5.2-1.5s-.9.7-1.6 1.5m-24.8 5c0 1.6.2 2.2.5 1.2.2-.9.2-2.3 0-3-.3-.6-.5.1-.5 1.8m2.6-1.8c.7.3 1.6.2 1.9-.1.4-.3-.2-.6-1.3-.5-1.1 0-1.4.3-.6.6m16 0c.7.3 1.6.2 1.9-.1.4-.3-.2-.6-1.3-.5-1.1 0-1.4.3-.6.6m3.4 1.8c0 1.6.2 2.2.5 1.2.2-.9.2-2.3 0-3-.3-.6-.5.1-.5 1.8m-24.9 3c0 2.7.2 3.8.4 2.2.2-1.5.2-3.7 0-5-.2-1.2-.4 0-.4 2.8m28 0c0 2.7.2 3.8.4 2.2.2-1.5.2-3.7 0-5-.2-1.2-.4 0-.4 2.8m-35 8.5c0 3 .2 4.3.4 2.7.2-1.5.2-3.9 0-5.5-.2-1.5-.4-.2-.4 2.8m12.1-.8c.1 3.7.4 4.3 2.4 4.4 1.2.1 2.5-.3 2.9-.9.3-.6.1-.7-.5-.3-.5.3-1.3 0-1.5-.6-.4-1-.6-1-.6-.1-.2 3-2 .9-2.4-2.7l-.4-4zm17.8-.5c-.1 2.4-.6 4.3-1.2 4.3-.5 0-1-.5-1-1.1s-.5-.9-1.1-.7c-1.6.5-.7 2.2 1.4 2.5 2.2.4 3-1.5 2.4-5.9-.3-3-.4-2.9-.5.9m12.1 1.3c0 3 .2 4.3.4 2.7.2-1.5.2-3.9 0-5.5-.2-1.5-.4-.2-.4 2.8m-33.2 2.5c0 3.3.3 6.6.7 7.3.5.7.7-1.6.4-5-.5-8.5-1-9.6-1.1-2.3m24.2.5c0 3.6.2 5 .4 3.2.2-1.7.2-4.7 0-6.5-.2-1.7-.4-.3-.4 3.3m-30 4c0 3.6.2 5 .4 3.2.2-1.7.2-4.7 0-6.5-.2-1.7-.4-.3-.4 3.3"/><path d="M122.2 100.4c-.2 4.6-.7 6.6-2.4 8.5l-2.2 2.6 2.7-2.6c2.6-2.3 2.8-3.1 2.4-8.5l-.3-5.9zm30.1-.9c0 2.7.2 3.8.4 2.2.2-1.5.2-3.7 0-5-.2-1.2-.4 0-.4 2.8m3 1.5c0 3.6.2 5 .4 3.2.2-1.7.2-4.7 0-6.5-.2-1.7-.4-.3-.4 3.3M135 96.2c0 .3.6 1.1 1.4 1.7 1 .9 1.7.7 2.7-.6 1.2-1.6 1.2-1.7-.2-.6-1.2 1-1.8 1-2.7.1-.7-.7-1.2-.9-1.2-.6m-1 2.8c0 .5.5 1 1.1 1 .5 0 .7-.5.4-1-.3-.6-.8-1-1.1-1-.2 0-.4.4-.4 1m5.5 0c-.3.5-.1 1 .4 1 .6 0 1.1-.5 1.1-1 0-.6-.2-1-.4-1-.3 0-.8.4-1.1 1m-11.1 1.1c-.8 1.4.8 3 2.2 2.1.9-.5.8-1-.2-1.9-.9-.9-1.5-1-2-.2m15.9.4c-1 1-.9 1.4.2 1.9 1.7.6 3.1-1.2 1.9-2.4-.5-.5-1.4-.2-2.1.5m8.7 7c1.9 1.9 3.6 3.5 3.9 3.5s-1-1.6-2.9-3.5-3.6-3.5-3.9-3.5 1 1.6 2.9 3.5m-26.3-1c-1.8 1.3-1.8 1.4.2 2.4 2.9 1.6 3.8 1.3 1.5-.4-1-.8-1.4-1.5-.7-1.5.6 0 1.9.7 2.7 1.6.9.8 1.6 1 1.6.4s-.7-1.3-1.5-1.6c-.8-.4-1.2-1-.9-1.5.8-1.3-.8-1-2.9.6m18.7-.6c.3.5-.1 1.1-.9 1.5-.8.3-1.5 1-1.5 1.6s.7.4 1.6-.4c.8-.9 2.1-1.6 2.7-1.6.7 0 .3.7-.7 1.5-2.3 1.7-1.4 2 1.5.4 2-1 2-1.1.2-2.4-2.1-1.6-3.7-1.9-2.9-.6m-21.4 6c0 .5.9.7 2 .4s2-.7 2-.9-.9-.4-2-.4-2 .4-2 .9m5.5.1c-.3.5-.3 1 .1 1s-.1.6-1.2 1.4c-1.9 1.4-1.8 1.5.3 1.3 1.2 0 1.9-.5 1.6-1-.3-.4.1-.8.8-.6.8.1 2.1.1 2.9 0 1.3-.1 1.3-.3.1-1-.8-.5-2.1-.7-2.9-.3-1 .3-1.3.1-.8-.6.4-.7.5-1.2.2-1.2s-.8.4-1.1 1m15-.1c.6 1.1.4 1.3-.8.8-.9-.3-2.6.4-4.2 1.9-2.5 2.3-2.5 2.4-.5 2.4 1.2 0 1.9-.4 1.5-.9-.7-1.3 3.1-2.4 4.7-1.4.7.4 2.2.8 3.3 1 1.5.1 1.3-.1-.6-1-1.5-.7-2.7-1.6-2.7-2 0-.5-.4-1.2-.8-1.5-.4-.4-.3-.1.1.7m2.5-.5c0 .2.9.6 2 .9s2 .1 2-.4-.9-.9-2-.9-2 .2-2 .4m-28.3 2.5c-1 1.2-.9 1.3.2.6 1.1-.6 1.3-.4.8.8-.9 2.4-.2 2.1 1.6-.6 1.3-2 1.3-2.4.1-2.4-.8 0-2 .7-2.7 1.6m35 .7c1.8 2.8 2.5 3.1 1.6.7-.5-1.2-.3-1.4.8-.8s1.2.5.2-.5c-.7-.8-1.9-1.5-2.8-1.6-1.2-.2-1.2.1.2 2.2"/><path d="M124.8 115.2c.7.7.8 1.6.2 2.3-.7.8 0 1.1 2.4 1.1 3.2-.1 4.2-1.6 1-1.6-.8 0-1.7-.7-2-1.5-.4-.8-1.1-1.5-1.7-1.5-.8 0-.7.4.1 1.2m18.7 1.9c-.4.6-.5 1.2-.2 1.5.2.3.7-.2 1-1.1.7-1.7.1-2-.8-.4m-8.1 2.1c-.3.4 1.2.8 3.2.8 2.1 0 3.4-.3 3.1-.7-1-.9-5.8-1-6.3-.1M63.5 121l-64 .5 66.8.3c44.4.1 66.6-.1 66.2-.8-.3-.6-1.6-.9-2.8-.8-1.2.2-31 .5-66.2.8m78.8.2c-.2.5 29.6.7 66.4.6 36.7-.1 62.1-.4 56.3-.5-25.8-.7-122.2-.7-122.7-.1"/></g><g fill="#FFF" stroke-width="0"><path d="M0 91.5V121l63.8-.1c35-.1 62.2-.5 60.4-.9-3.7-.9-3.5-.7-4.9-3.4-.9-1.5-.6-2.6 1-4.8 1.1-1.5 2.6-2.8 3.3-2.8 1.2 0 2.4-2.1 2.4-4.2 0-.6-2 .8-4.5 3.1-2.4 2.2-4.8 4.1-5.1 4.1-1.2 0 .6-37.3 1.8-38.8 1.3-1.5 4.4-1.2 9.6.9 3.1 1.3 3.5 1.2 4.8-.5 1.9-2.7 1.8-7.6-.2-7.6-1.1 0-1.4-.6-.9-2 .6-2 .2-2-65.4-2H0zm140.4-27.9c.9.8 1.6 3.2 1.6 5.2 0 5.8 1.2 7 5.2 5.3 5.2-2.1 8.3-2.4 9.6-.9 1.2 1.5 3 38.8 1.8 38.8-.4 0-2.9-2.1-5.6-4.6-4.9-4.6-5-4.6-3.9-1.5.6 1.7 1.6 3.1 2.3 3.1s2.2 1.3 3.3 2.8c1.6 2.2 1.9 3.3 1 4.8-1.4 2.7-1.2 2.5-4.9 3.4-1.8.4 25.4.8 60.5.9l63.7.1V62h-68.1c-61.9 0-67.9.1-66.5 1.6m-4.1 3.6q-.15 1.8 1.8 1.8c1.1 0 1.9.7 1.9 1.7 0 .9.3 1.4.6 1 .3-.3.3-1.9-.1-3.6-.7-3.3-4-4-4.2-.9"/><path d="M119.6 73.9c-.4.5.2 1.2 1.3 1.6 1 .3 2.6 1.4 3.6 2.5 2.2 2.4 8.2 2.7 11.1.6 1.8-1.4 1.7-1.5-1-1.2-1.6.2-4.5-.5-6.5-1.4-5.3-2.6-7.9-3.2-8.5-2.1m27.9 1.6c-3.3 1.3-6.9 2.2-8 1.9-2-.5-2-.5-.1 1 2.8 2.3 8.9 2 11.1-.4 1-1.1 2.6-2.2 3.6-2.5 1.1-.4 1.7-1.1 1.4-1.6-.8-1.2-1-1.2-8 1.6m-11.2 5.2c-1.7.6-1.8 14.4-.1 16.1 2.4 2.4 3.8-.7 3.8-8.3 0-7.2-.8-8.8-3.7-7.8m-6.2 14.9c0 1.1.3 1.4.6.6.3-.7.2-1.6-.1-1.9-.3-.4-.6.2-.5 1.3m14 0c0 1.1.3 1.4.6.6.3-.7.2-1.6-.1-1.9-.3-.4-.6.2-.5 1.3m-13.5 3.3c-.4.7-.5 1.5-.2 1.8.9.9 1.9-.4 1.4-1.8-.4-1.1-.6-1.1-1.2 0m12.4.5c0 .9.5 1.6 1 1.6.6 0 1-.4 1-.9 0-.6-.4-1.3-1-1.6-.5-.3-1 .1-1 .9m-9.9 2.2c0 1.1.3 1.4.6.6.3-.7.2-1.6-.1-1.9-.3-.4-.6.2-.5 1.3m8.1.4c0 1.4.2 1.9.5 1.2.2-.6.2-1.8 0-2.5-.3-.6-.5-.1-.5 1.3m-13.2 2.1c0 .5.7.9 1.5.9.9 0 1.8 1.2 2.2 3 .3 1.7.8 2.9 1 2.6.2-.2.1-1.9-.2-3.8-.5-2.4-1.2-3.4-2.6-3.5-1-.1-1.9.2-1.9.8m14.5 2.7c-.3 1.9-.4 3.6-.2 3.8.2.3.7-.9 1-2.6.4-1.8 1.3-3 2.2-3 .8 0 1.5-.4 1.5-.9 0-.6-.9-.9-1.9-.8-1.4.1-2.1 1.1-2.6 3.5m-20.5 6.7c-1.6 1.9-.6 4.5 1.7 4.5 1.7-.1 1.7-.1 0-1.1-1.3-.8-1.5-1.4-.7-3 1.3-2.3.7-2.5-1-.4m29-.8c0 .5.5 1.4 1.2 2.1.8.8.5 1.3-1.3 2-4.9 1.8-5.3 2.2-1.9 1.6 1.9-.4 3.8-.8 4.3-1.1 1.2-.7.8-3-.8-4.3-.8-.7-1.5-.8-1.5-.3m-25.5 1.3c.3.5 1 1 1.6 1 .5 0 .9-.5.9-1 0-.6-.7-1-1.6-1-.8 0-1.2.4-.9 1"/><path d="M147.5 114c.3.5 1.1 1 1.6 1 .6 0 .7-.5.4-1-.3-.6-1.1-1-1.6-1-.6 0-.7.4-.4 1m-14.5.8c0 1 5.7 1.4 6.3.5.3-.5-1-.9-2.9-1s-3.4.1-3.4.5m9 .2c0 .5.9 1 2.1 1 1.1 0 1.7-.5 1.4-1-.3-.6-1.3-1-2.1-1s-1.4.4-1.4 1m-15.2 3.7c.6.2 1.8.2 2.5 0 .6-.3.1-.5-1.3-.5s-1.9.2-1.2.5m8.5 3c1.5.2 3.7.2 5 0 1.2-.2 0-.4-2.8-.4-2.7 0-3.8.2-2.2.4"/></g><g fill="#BFBF80" stroke-width="0"><path d="M141.1 69.5c-.1 2.2-.6 4.7-1.2 5.5-.8 1.1-.9.7-.5-1.8.5-2.8.3-3.2-1.6-3.2-1.7 0-1.9.3-1 1.2.7.7 1.2 2.2 1.2 3.5 0 2.7 1.5 3 2.9.5 1-1.6 1-1.6 1.1 0 0 2 .6 2.1 3.5.7 1.9-.9 1.8-.9-.3-.5-2.3.4-2.7-.3-3.5-6.9-.3-2.5-.4-2.3-.6 1m-6.6 1.7c.3 1 .8 2.5 1.1 3.3.4 1 0 1.3-1.5 1-1.2-.2-2.1 0-2.1.5 0 1.3 2.5 1.9 4.1 1 1.1-.7 1-1.4-.4-4.2-1-1.8-1.5-2.5-1.2-1.6m-13.7 1.5c.7.3 1.6.2 1.9-.1.4-.3-.2-.6-1.3-.5-1.1 0-1.4.3-.6.6m32 0c.7.3 1.6.2 1.9-.1.4-.3-.2-.6-1.3-.5-1.1 0-1.4.3-.6.6m-24 3c.7.3 1.6.2 1.9-.1.4-.3-.2-.6-1.3-.5-1.1 0-1.4.3-.6.6m-11.6 2.8c0 1.6.2 2.2.5 1.2.2-.9.2-2.3 0-3-.3-.6-.5.1-.5 1.8m40 0c0 1.6.2 2.2.5 1.2.2-.9.2-2.3 0-3-.3-.6-.5.1-.5 1.8m-23.7 1.3c-2.2.7-4.4 1.7-4.9 2.2s1.3.1 4-.8c4.7-1.7 5.1-1.7 9.9.1 2.8 1 4.6 1.4 4 .8-.5-.5-2.8-1.6-5-2.3-3.3-1.1-4.7-1.1-8 0m-14 9.2c-.4 2.8-.5 5.3-.2 5.6.2.3.7-1.9 1.1-4.7s.5-5.3.3-5.6c-.3-.2-.8 1.9-1.2 4.7m34.7-3.5c-.1 1.1.3 3.8.7 6 .7 3.4.9 3.5.9 1 0-3.5-1.5-10.1-1.6-7M125 88.1c0 1.7.4 2.8 1 2.4.6-.3 1-1.7 1-3.1 0-1.3-.4-2.4-1-2.4-.5 0-1 1.4-1 3.1m3.7-1.6c-.4 1-.3 2.1.3 2.5 1 .6 1.9 3.3 2.3 6.9.1.8-.4 1.6-1.2 1.9-.9.3-1.1 0-.6-.8q.75-1.35-.3-.6c-.7.4-1.2 1.4-1.2 2.2 0 1.1.4 1.2 1.9.4 2.5-1.3 3.6.3 1.6 2.3-.8.9-1.1 1.7-.6 1.9s1.3 2.1 1.7 4.3c.6 3.3.5 3.8-.7 2.9-.8-.5-2.4-.9-3.6-.8-1.3 0-2.3-.4-2.3-1s-.4-.5-.9.2c-.4.8-1.1 1.3-1.5 1.3-1.8-.3-2.6 0-2.6.9 0 .7 1.5.9 3.8.5 3.4-.5 3.5-.4 1 .6-1.7.6-2.6 1.7-2.5 3 .1 1 .5 1.9 1 1.9.4 0 .7-.8.5-1.8-.2-1.3.4-1.7 2.9-1.7 1.8-.1 3.5-.4 3.9-.7.4-.4 1.6-.2 2.8.4 2.8 1.6 3.7 1.6 6 .2 1.3-.9 2.5-1 3.7-.4 1 .6 2.4.7 3.3.4s1.9.3 2.6 1.6c.6 1.1 1.5 1.8 2 1.5 1.1-.7-1.6-3.8-4-4.9-.8-.3.2-.4 2.3-.1 2.2.4 3.7.2 3.7-.5 0-.9-.8-1.2-2.6-.9-.4 0-1.1-.5-1.5-1.3-.5-.7-.9-.8-.9-.2s-1 1-2.2 1c-1.3-.1-2.9.2-3.6.8-1 .7-1.2.1-.9-2.9.2-2.2.9-4.1 1.5-4.3.8-.2.7-.8-.3-1.9-2-2-.9-3.6 1.6-2.3 1.5.8 1.9.7 1.9-.4 0-.8-.5-1.8-1.2-2.2s-.8-.3-.4.4c1 1.7-.9 1.5-2.3-.2-.8-.9-.8-1.5-.1-1.8.5-.1 1.2-1.4 1.5-2.7.2-1.4 1-2.8 1.6-3.2.8-.5.8-1.2 0-2.5-1-1.8-1-1.8-1.1-.1 0 2.3-2.7 7.6-5.3 10.4-2 2.2-2.1 2.2-4 .6-2.1-2-4.7-6.5-5.7-10.3-.6-2.2-.7-2.2-1.3-.5m8.8 13.5c.2 0 1.3-.9 2.4-2.1 1.2-1.3 2.1-1.7 2.6-1 .3.6.1 1.1-.5 1.1s-.8 1-.4 2.6c.4 1.7.2 2.9-.7 3.5-.8.5-.9.9-.3.9 1.6 0 .5 5-1.2 5.7-.8.3-1.1.9-.8 1.4s-.2.9-1.1.9-1.4-.4-1.1-.9 0-1.1-.8-1.4c-1.7-.7-2.8-5.7-1.2-5.7.6 0 .5-.4-.3-.9-.9-.6-1.1-1.8-.7-3.5.4-1.6.2-2.6-.4-2.6s-.8-.5-.5-1.1c.5-.7 1.4-.3 2.6 1 1.1 1.2 2.2 2.1 2.4 2.1m-6.5 11.4c0 .3-.4.8-1 1.1-.5.3-1 .1-1-.4 0-.6.5-1.1 1-1.1.6 0 1 .2 1 .4m15 .6c0 .5-.2 1-.4 1-.3 0-.8-.5-1.1-1-.3-.6-.1-1 .4-1 .6 0 1.1.4 1.1 1"/><path d="M134 101.1c0 .5.5.7 1 .4.6-.3 1-.8 1-1.1 0-.2-.4-.4-1-.4-.5 0-1 .5-1 1.1m5.5-.1c.3.5.8 1 1.1 1 .2 0 .4-.5.4-1 0-.6-.5-1-1.1-1-.5 0-.7.4-.4 1m-3.4 7.6c0 1.1.3 1.4.6.6.3-.7.2-1.6-.1-1.9-.3-.4-.6.2-.5 1.3m2 0c0 1.1.3 1.4.6.6.3-.7.2-1.6-.1-1.9-.3-.4-.6.2-.5 1.3m9.9-21.2c0 1.4.5 2.8 1 3.1.6.4 1-.7 1-2.4s-.4-3.1-1-3.1c-.5 0-1 1.1-1 2.4m-26 5.1c0 1.4.5 2.5 1 2.5.6 0 1-1.1 1-2.5s-.4-2.5-1-2.5c-.5 0-1 1.1-1 2.5m29 0c0 1.4.5 2.5 1 2.5.6 0 1-1.1 1-2.5s-.4-2.5-1-2.5c-.5 0-1 1.1-1 2.5m-34.8 9.5c0 1.9.2 2.7.5 1.7.2-.9.2-2.5 0-3.5-.3-.9-.5-.1-.5 1.8m42 0c0 1.9.2 2.7.5 1.7.2-.9.2-2.5 0-3.5-.3-.9-.5-.1-.5 1.8m-12.2.4c0 .2.9.6 2 .9s1.8.1 1.4-.4c-.5-.9-3.4-1.3-3.4-.5m-22.1 2.3c-1.3 1.6-1.2 1.7.4.4.9-.7 1.7-1.5 1.7-1.7 0-.8-.8-.3-2.1 1.3m2.1 1.4c0 .5.5.7 1 .4.6-.3 1-.8 1-1.1 0-.2-.4-.4-1-.4-.5 0-1 .5-1 1.1m3.5-.1c-.3.5-.1 1 .4 1 .6 0 1.1-.5 1.1-1 0-.6-.2-1-.4-1-.3 0-.8.4-1.1 1m14.5 0c0 .5.5 1 1.1 1 .5 0 .7-.5.4-1-.3-.6-.8-1-1.1-1-.2 0-.4.4-.4 1m3.5 0c.3.5.8 1 1.1 1 .2 0 .4-.5.4-1 0-.6-.5-1-1.1-1-.5 0-.7.4-.4 1m-16.5 8.8v1.9c.1.5 1 .7 2.1.5s2.7.2 3.5.9c1.2 1 1.3.9.8-.5-.3-.9-1.4-1.6-2.3-1.6s-2.2-.5-2.9-1.2c-.9-.9-1.2-.9-1.2 0m9.5 1.2c.3.5 1.1 1 1.6 1 .6 0 .7-.5.4-1-.3-.6-1.1-1-1.6-1-.6 0-.7.4-.4 1"/><path d="M131.6 118.9c-1.8.7-1.8.8-.2 1.4 2.5 1 10.8.8 12.4-.2 1-.6.9-1-.7-1.4-1.2-.3-1.9-.1-1.5.4.7 1.2-5.9 1.2-7.1 0-.6-.5-1.9-.6-2.9-.2"/></g><path fill="#BF8040" d="M134.1 63.5c-.2 2.4 1.4 3.3 2.9 1.7 1.3-1.4 1.2-1.5-.2-.9-.9.3-1.9.1-2.2-.6-.2-.7-.5-.8-.5-.2m-8.9 19c0 1.6.2 2.2.5 1.2.2-.9.2-2.3 0-3-.3-.6-.5.1-.5 1.8m24 0c0 1.6.2 2.2.5 1.2.2-.9.2-2.3 0-3-.3-.6-.5.1-.5 1.8m-31.9 2c0 2.2.2 3 .4 1.7.2-1.2.2-3 0-4-.3-.9-.5.1-.4 2.3m16.5 3.6c-.2 3.9 0 7.3.5 7.6.4.2.7-3 .7-7.1 0-4.2-.2-7.6-.4-7.6s-.6 3.2-.8 7.1m6.2.4c0 4.3.3 7.5.7 7.2.7-.7.4-13.9-.3-14.6-.2-.2-.4 3.1-.4 7.4m17.3-4c0 2.2.2 3 .4 1.7.2-1.2.2-3 0-4-.3-.9-.5.1-.4 2.3M128 84c0 .5.5 1 1 1 .6 0 1-.5 1-1 0-.6-.4-1-1-1-.5 0-1 .4-1 1m17 0c0 .5.5 1 1 1 .6 0 1-.5 1-1 0-.6-.4-1-1-1-.5 0-1 .4-1 1m-25.9 2.6c0 1.1.3 1.4.6.6.3-.7.2-1.6-.1-1.9-.3-.4-.6.2-.5 1.3m3.1.9c0 1.6.2 2.2.5 1.2.2-.9.2-2.3 0-3-.3-.6-.5.1-.5 1.8m30 0c0 1.6.2 2.2.5 1.2.2-.9.2-2.3 0-3-.3-.6-.5.1-.5 1.8m2.9-.9c0 1.1.3 1.4.6.6.3-.7.2-1.6-.1-1.9-.3-.4-.6.2-.5 1.3M126.2 93c0 1.9.2 2.7.5 1.7.2-.9.2-2.5 0-3.5-.3-.9-.5-.1-.5 1.8m22 0c0 1.9.2 2.7.5 1.7.2-.9.2-2.5 0-3.5-.3-.9-.5-.1-.5 1.8m-28.1-.4c0 1.1.3 1.4.6.6.3-.7.2-1.6-.1-1.9-.3-.4-.6.2-.5 1.3m34 0c0 1.1.3 1.4.6.6.3-.7.2-1.6-.1-1.9-.3-.4-.6.2-.5 1.3m-31 5c0 1.1.3 1.4.6.6.3-.7.2-1.6-.1-1.9-.3-.4-.6.2-.5 1.3m28 0c0 1.1.3 1.4.6.6.3-.7.2-1.6-.1-1.9-.3-.4-.6.2-.5 1.3m-24.5 5.9c.4.8.8 1.5 1 1.5s.4-.7.4-1.5-.4-1.5-1-1.5c-.5 0-.7.7-.4 1.5m9.5 2.1c0 1.1.3 1.4.6.6.3-.7.2-1.6-.1-1.9-.3-.4-.6.2-.5 1.3m2 0c0 1.1.3 1.4.6.6.3-.7.2-1.6-.1-1.9-.3-.4-.6.2-.5 1.3m-22.1 1.8c0 1.4.4 2.7.8 3 .5.3.6-.8.4-2.5-.5-3.5-1.2-3.8-1.2-.5m41.9.4c-.3 2-.2 2.9.4 2.3.5-.5.7-1.9.5-3.2-.3-2-.5-1.9-.9.9m-32.3 8c-.3.5.1.9.9.9s1.2-.4.9-.9c-.3-.4-.7-.8-.9-.8s-.6.4-.9.8m15.9 1.2c-1.6.7-1.7.9-.3.9.9.1 2-.4 2.3-.9.7-1.1.7-1.1-2 0m-7.7.7c.7.3 1.6.2 1.9-.1.4-.3-.2-.6-1.3-.5-1.1 0-1.4.3-.6.6m-8 2c.6.2 1.8.2 2.5 0 .6-.3.1-.5-1.3-.5s-1.9.2-1.2.5m21 0c.6.2 1.8.2 2.5 0 .6-.3.1-.5-1.3-.5s-1.9.2-1.2.5"/><path fill="olive" d="M135.8 63.7c.6.2 1.8.2 2.5 0 .6-.3.1-.5-1.3-.5s-1.9.2-1.2.5m-17.1 13c-.8 1.2-2.1 33.9-1.3 33.2.6-.6 2.7-33.1 2.1-33.7-.2-.2-.5 0-.8.5m36.9 8c1 18.3 1.6 25.4 2.1 24.9.9-.9-.8-33.6-1.8-33.6-.4 0-.6 3.9-.3 8.7m-34.6-.6c0 4.1-.2 11.2-.5 15.9-.4 5.6-.2 7.8.4 6.5 1.1-2.6 1.9-28.1.9-29.1-.5-.4-.8 2.6-.8 6.7m31.9-6.5c-.5 3.7.5 27.2 1.2 28.4.5.9.6-4.8.2-13.5-.5-13.1-1-18.1-1.4-14.9M127.3 88c0 4.1.2 5.8.4 3.7.2-2 .2-5.4 0-7.5-.2-2-.4-.3-.4 3.8m20 0c0 4.1.2 5.8.4 3.7.2-2 .2-5.4 0-7.5-.2-2-.4-.3-.4 3.8m-22.9 3c0 5.2.1 7.4.3 4.7.2-2.6.2-6.8 0-9.5-.2-2.6-.3-.4-.3 4.8m5.7-6.3c.2 2.4.2 2.5.6.5.8-4.2 2.4-2.2 2.2 2.8-.2 2.7 0 5.3.4 5.7.4.3.7-2.1.7-5.5 0-5.5-.2-6.2-2-6.2-1.5 0-2 .6-1.9 2.7m10.9 3.5c0 3.4.3 5.8.7 5.5.4-.4.6-3 .4-5.7-.2-5 1.4-7 2.2-2.8.4 2 .4 1.9.6-.5.1-2.1-.4-2.7-1.9-2.7-1.8 0-2 .7-2 6.2m9.4 2.8c0 5.2.1 7.4.3 4.7.2-2.6.2-6.8 0-9.5-.2-2.6-.3-.4-.3 4.8m-14.4 9.2c0 .4.7.8 1.5.8s1.5-.4 1.5-.8c0-.5-.7-.9-1.5-.9s-1.5.4-1.5.9m-.8 4.3c0 1.6.2 2.2.5 1.2.2-.9.2-2.3 0-3-.3-.6-.5.1-.5 1.8m4 0c0 1.6.2 2.2.5 1.2.2-.9.2-2.3 0-3-.3-.6-.5.1-.5 1.8m11.3-.5c.3.5.8 1 1.1 1 .2 0 .4-.5.4-1 0-.6-.5-1-1.1-1-.5 0-.7.4-.4 1m-13.3 3c0 1.9.2 2.7.5 1.7.2-.9.2-2.5 0-3.5-.3-.9-.5-.1-.5 1.8"/><path fill="#BF8000" d="M119.2 83c0 1.4.2 1.9.5 1.2.2-.6.2-1.8 0-2.5-.3-.6-.5-.1-.5 1.3m36 0c0 1.4.2 1.9.5 1.2.2-.6.2-1.8 0-2.5-.3-.6-.5-.1-.5 1.3m-33.1.6c0 1.1.3 1.4.6.6.3-.7.2-1.6-.1-1.9-.3-.4-.6.2-.5 1.3m30 0c0 1.1.3 1.4.6.6.3-.7.2-1.6-.1-1.9-.3-.4-.6.2-.5 1.3m-21.3 1.9c-.3 1.4-.1 2.5.4 2.5s.8.6.5 1.2c-.2.7-1 1.2-1.6 1-.6-.1-1.1.5-1.1 1.3 0 1.3.3 1.3 2 .3 1.4-.9 2-2.4 2-5 0-4.3-1.5-5.1-2.2-1.3m11.2 1.3c0 2.6.6 4.1 2 5 1.7 1 2 1 2-.3 0-.8-.5-1.4-1.1-1.3-.6.2-1.4-.3-1.6-1-.3-.6 0-1.2.5-1.2s.7-1.1.4-2.5c-.7-3.8-2.2-3-2.2 1.3M117.2 90c0 1.4.2 1.9.5 1.2.2-.6.2-1.8 0-2.5-.3-.6-.5-.1-.5 1.3m40 0c0 1.4.2 1.9.5 1.2.2-.6.2-1.8 0-2.5-.3-.6-.5-.1-.5 1.3m-37.1 5.6c0 1.1.3 1.4.6.6.3-.7.2-1.6-.1-1.9-.3-.4-.6.2-.5 1.3m34 0c0 1.1.3 1.4.6.6.3-.7.2-1.6-.1-1.9-.3-.4-.6.2-.5 1.3m-27.4.1c-1.1 1-.8 5.1.3 5.8.6.4 1-.8 1-2.9 0-3.7-.2-4.1-1.3-2.9m20.5 2.7c.1 1.9.6 3.2 1 3 1.2-.7 1-5.2-.2-5.9-.7-.4-1 .6-.8 2.9m-24.2 2.5c0 1.1.5 2.3 1 2.6.6.3 1-.3 1-1.4s-.4-2.3-1-2.6c-.5-.3-1 .3-1 1.4m27.5-.6c-.4 1-.5 2.1-.1 2.4 1 1 1.8-.4 1.3-2.4-.4-1.7-.4-1.7-1.2 0m-14.9 2.2c.4.8 1.2 1.5 1.9 1.5s1.5-.7 1.9-1.5c.4-1.1-.1-1.5-1.9-1.5s-2.3.4-1.9 1.5m-17.3 3.5c0 2.5.2 3.5.4 2.2.2-1.2.2-3.2 0-4.5-.2-1.2-.4-.2-.4 2.3m38 0c0 2.5.2 3.5.4 2.2.2-1.2.2-3.2 0-4.5-.2-1.2-.4-.2-.4 2.3m-3.3-.1c0 .6.4 1.3 1 1.6s.7-.1.4-.9c-.7-1.8-1.4-2.1-1.4-.7m-19 1c0 .5.5 1.3 1 1.6.6.3 1 .2 1-.4 0-.5-.4-1.3-1-1.6-.5-.3-1-.2-1 .4m5.7-.2c-.4.3-.7 1.1-.7 1.7s.5.5 1.2-.2c.6-.6.9-1.4.7-1.7-.3-.3-.9-.2-1.2.2m7.3 9.3c0 .6.7 1 1.5 1s1.5-.2 1.5-.4-.7-.6-1.5-1c-.8-.3-1.5-.1-1.5.4"/><path fill="#BF8080" d="M119.6 89.3c.3 1 .9 1.5 1.2 1.2s0-1.1-.7-1.8c-1-.9-1.1-.8-.5.6m34.9-.2c-.4.6-.5 1.2-.2 1.5.2.3.7-.2 1-1.1.7-1.7.1-2-.8-.4"/><path d="M0 152.5V183h275v-61H0z"/></svg>